<svg xmlns="http://www.w3.org/2000/svg"  viewBox="0 0 100 100" width="100px" height="100px"><path fill="#c7ede6" d="M87.215,56.71C88.35,54.555,89,52.105,89,49.5c0-6.621-4.159-12.257-10.001-14.478 C78.999,35.015,79,35.008,79,35c0-11.598-9.402-21-21-21c-9.784,0-17.981,6.701-20.313,15.757C36.211,29.272,34.638,29,33,29 c-7.692,0-14.023,5.793-14.89,13.252C12.906,43.353,9,47.969,9,53.5C9,59.851,14.149,65,20.5,65c0.177,0,0.352-0.012,0.526-0.022 C21.022,65.153,21,65.324,21,65.5C21,76.822,30.178,86,41.5,86c6.437,0,12.175-2.972,15.934-7.614C59.612,80.611,62.64,82,66,82 c4.65,0,8.674-2.65,10.666-6.518C77.718,75.817,78.837,76,80,76c6.075,0,11-4.925,11-11C91,61.689,89.53,58.727,87.215,56.71z"/><path fill="#fdfcef" d="M83.875,45.5c0,0,3.64,0,6.125,0s4.5-2.015,4.5-4.5c0-2.333-1.782-4.229-4.055-4.455 C90.467,36.364,90.5,36.187,90.5,36c0-2.485-2.015-4.5-4.5-4.5c-1.438,0-2.703,0.686-3.527,1.736 C82.333,30.6,80.171,28.5,77.5,28.5c-2.761,0-5,2.239-5,5c0,0.446,0.077,0.87,0.187,1.282C72.045,34.005,71.086,33.5,70,33.5 c-1.781,0-3.234,1.335-3.455,3.055C66.364,36.533,66.187,36.5,66,36.5c-2.485,0-4.5,2.015-4.5,4.5s2.015,4.5,4.5,4.5s9.5,0,9.5,0 h5.375V46h3V45.5z"/><path fill="#472b29" d="M77.5,28c-3.033,0-5.5,2.467-5.5,5.5c0,0.016,0,0.031,0,0.047C71.398,33.192,70.71,33,70,33 c-1.831,0-3.411,1.261-3.858,3.005C66.095,36.002,66.048,36,66,36c-2.757,0-5,2.243-5,5s2.243,5,5,5h14.875 c0.276,0,0.5-0.224,0.5-0.5s-0.224-0.5-0.5-0.5H66c-2.206,0-4-1.794-4-4s1.794-4,4-4c0.117,0,0.23,0.017,0.343,0.032l0.141,0.019 c0.021,0.003,0.041,0.004,0.062,0.004c0.246,0,0.462-0.185,0.495-0.437C67.232,35.125,68.504,34,70,34 c0.885,0,1.723,0.401,2.301,1.1c0.098,0.118,0.241,0.182,0.386,0.182c0.078,0,0.156-0.018,0.228-0.056 c0.209-0.107,0.314-0.346,0.254-0.573C73.054,34.218,73,33.852,73,33.5c0-2.481,2.019-4.5,4.5-4.5c2.381,0,4.347,1.872,4.474,4.263 c0.011,0.208,0.15,0.387,0.349,0.45c0.05,0.016,0.101,0.024,0.152,0.024c0.15,0,0.296-0.069,0.392-0.192 C83.638,32.563,84.779,32,86,32c2.206,0,4,1.794,4,4c0,0.117-0.017,0.23-0.032,0.343l-0.019,0.141 c-0.016,0.134,0.022,0.268,0.106,0.373s0.207,0.172,0.34,0.185C92.451,37.247,94,38.949,94,41c0,2.206-1.794,4-4,4h-6.125 c-0.276,0-0.5,0.224-0.5,0.5s0.224,0.5,0.5,0.5H90c2.757,0,5-2.243,5-5c0-2.397-1.689-4.413-4.003-4.877 C90.999,36.082,91,36.041,91,36c0-2.757-2.243-5-5-5c-1.176,0-2.293,0.416-3.183,1.164C82.219,29.76,80.055,28,77.5,28L77.5,28z"/><path fill="#472b29" d="M76,35c-1.403,0-2.609,0.999-2.913,2.341C72.72,37.119,72.301,37,71.875,37 c-1.202,0-2.198,0.897-2.353,2.068C69.319,39.022,69.126,39,68.938,39c-1.529,0-2.811,1.2-2.918,2.732 C66.01,41.87,66.114,41.99,66.251,42c0.006,0,0.012,0,0.018,0c0.13,0,0.24-0.101,0.249-0.232c0.089-1.271,1.151-2.268,2.419-2.268 c0.229,0,0.47,0.042,0.738,0.127c0.022,0.007,0.045,0.01,0.067,0.01c0.055,0,0.11-0.02,0.156-0.054 C69.962,39.537,70,39.455,70,39.375c0-1.034,0.841-1.875,1.875-1.875c0.447,0,0.885,0.168,1.231,0.473 c0.047,0.041,0.106,0.063,0.165,0.063c0.032,0,0.063-0.006,0.093-0.019c0.088-0.035,0.148-0.117,0.155-0.212 C73.623,36.512,74.712,35.5,76,35.5c0.208,0,0.425,0.034,0.682,0.107c0.023,0.007,0.047,0.01,0.07,0.01 c0.109,0,0.207-0.073,0.239-0.182c0.038-0.133-0.039-0.271-0.172-0.309C76.517,35.04,76.256,35,76,35L76,35z M89.883,36.5 c-1.326,0-2.508,0.897-2.874,2.182c-0.038,0.133,0.039,0.271,0.172,0.309C87.205,38.997,87.228,39,87.25,39 c0.109,0,0.209-0.072,0.24-0.182C87.795,37.748,88.779,37,89.883,37c0.117,0,0.23,0.014,0.342,0.029 c0.012,0.002,0.023,0.003,0.035,0.003c0.121,0,0.229-0.092,0.246-0.217c0.019-0.137-0.077-0.263-0.214-0.281 C90.158,36.516,90.022,36.5,89.883,36.5L89.883,36.5z"/><path fill="#fff" d="M15.405,48H5.5C5.224,48,5,47.776,5,47.5S5.224,47,5.5,47h9.905c0.276,0,0.5,0.224,0.5,0.5 S15.682,48,15.405,48z M18.5,48h-1c-0.276,0-0.5-0.224-0.5-0.5s0.224-0.5,0.5-0.5h1c0.276,0,0.5,0.224,0.5,0.5S18.777,48,18.5,48z M23.491,50H14.5c-0.276,0-0.5-0.224-0.5-0.5s0.224-0.5,0.5-0.5h8.991c0.276,0,0.5,0.224,0.5,0.5S23.767,50,23.491,50z M12.5,50h-1 c-0.276,0-0.5-0.224-0.5-0.5s0.224-0.5,0.5-0.5h1c0.276,0,0.5,0.224,0.5,0.5S12.777,50,12.5,50z M9.5,50h-2 C7.224,50,7,49.776,7,49.5S7.224,49,7.5,49h2c0.276,0,0.5,0.224,0.5,0.5S9.777,50,9.5,50z M15.5,52h-2c-0.276,0-0.5-0.224-0.5-0.5 s0.224-0.5,0.5-0.5h2c0.276,0,0.5,0.224,0.5,0.5S15.776,52,15.5,52z M18.5,43c-0.177,0-0.823,0-1,0c-0.276,0-0.5,0.224-0.5,0.5 s0.224,0.5,0.5,0.5c0.177,0,0.823,0,1,0c0.276,0,0.5-0.224,0.5-0.5S18.776,43,18.5,43z M18.5,45c-0.177,0-4.823,0-5,0 c-0.276,0-0.5,0.224-0.5,0.5s0.224,0.5,0.5,0.5c0.177,0,4.823,0,5,0c0.276,0,0.5-0.224,0.5-0.5S18.776,45,18.5,45z M23.5,47 c-0.177,0-2.823,0-3,0c-0.276,0-0.5,0.224-0.5,0.5s0.224,0.5,0.5,0.5c0.177,0,2.823,0,3,0c0.276,0,0.5-0.224,0.5-0.5 S23.776,47,23.5,47z"/><path fill="#fff" d="M67.5,21h-10c-0.276,0-0.5-0.224-0.5-0.5s0.224-0.5,0.5-0.5h10c0.276,0,0.5,0.224,0.5,0.5 S67.776,21,67.5,21z M71.5,21h-2c-0.276,0-0.5-0.224-0.5-0.5s0.224-0.5,0.5-0.5h2c0.276,0,0.5,0.224,0.5,0.5S71.776,21,71.5,21z M76.5,23h-10c-0.276,0-0.5-0.224-0.5-0.5s0.224-0.5,0.5-0.5h10c0.276,0,0.5,0.224,0.5,0.5S76.777,23,76.5,23z M64.5,23h-1 c-0.276,0-0.5-0.224-0.5-0.5s0.224-0.5,0.5-0.5h1c0.276,0,0.5,0.224,0.5,0.5S64.776,23,64.5,23z M61.375,23H59.5 c-0.276,0-0.5-0.224-0.5-0.5s0.224-0.5,0.5-0.5h1.875c0.276,0,0.5,0.224,0.5,0.5S61.651,23,61.375,23z M70.5,19h-5 c-0.276,0-0.5-0.224-0.5-0.5s0.224-0.5,0.5-0.5h5c0.276,0,0.5,0.224,0.5,0.5S70.777,19,70.5,19z M67.5,25h-2 c-0.276,0-0.5-0.224-0.5-0.5s0.224-0.5,0.5-0.5h2c0.276,0,0.5,0.224,0.5,0.5S67.776,25,67.5,25z"/><path fill="#6e78ad" d="M77.362,61.775c-0.513-4.814-3.541-16.942-4.614-19.564c-0.965-2.357-2.614-3.386-4.321-4.297 c-1.978-0.883-4.133-1.599-6.39-2.124c-0.547-0.115-1.011-0.171-1.419-0.171c-1.209,0-1.552,0.507-1.705,0.888l-1.003,2.5 l-0.544-0.124c-1.779-0.406-3.573-0.613-5.336-0.613s-3.544,0.206-5.293,0.612l-0.544,0.127l-1.004-2.502 c-0.153-0.381-0.496-0.888-1.705-0.888c-0.407,0-0.872,0.056-1.406,0.167c-2.27,0.529-4.426,1.245-6.363,2.109 c-1.748,0.929-3.397,1.96-4.362,4.316c-1.073,2.621-4.101,14.75-4.614,19.564c-0.458,4.294,0.307,5.024,1.031,5.718 c1.655,1.496,5.521,4.053,8.059,4.815l0.591,0.183c0.893,0.28,1.738,0.544,2.462,0.544c0.692,0,1.183-0.246,1.592-0.799 c1.18-1.591,1.757-3.492,1.763-3.512l0.16-0.535l0.554,0.076c3.083,0.42,6.178,0.633,9.197,0.633c3.017,0,6.045-0.214,8.998-0.633 l0.557-0.078l0.16,0.538c0.006,0.02,0.583,1.92,1.763,3.512c0.409,0.552,0.901,0.798,1.592,0.799c0.725,0,1.569-0.264,2.46-0.546 l0.593-0.183c2.538-0.762,6.404-3.317,8.045-4.801C77.055,66.799,77.819,66.068,77.362,61.775z M43.27,61.694 c-0.002,0-0.004,0-0.005,0c-2.471-0.002-4.474-2.424-4.472-5.41s2.006-5.406,4.478-5.404c0.002,0,0.004,0,0.005,0 c2.471,0.002,4.474,2.424,4.472,5.41S45.742,61.696,43.27,61.694z M60.907,61.822c-0.002,0-0.004,0-0.005,0 c-2.471-0.002-4.474-2.514-4.472-5.612c0.002-3.098,2.006-5.607,4.478-5.605c0.002,0,0.004,0,0.005,0 c2.471,0.002,4.474,2.514,4.472,5.612C65.384,59.315,63.379,61.824,60.907,61.822z"/><path fill="#472b29" d="M65.219,73.735c-0.911-0.001-1.615-0.355-2.154-1.083c-1.135-1.529-1.74-3.318-1.858-3.689 c-5.951,0.842-12.098,0.842-18.311,0c-0.091,0.288-0.698,2.125-1.858,3.689c-0.539,0.728-1.244,1.083-2.155,1.083 c-0.832,0-1.726-0.28-2.671-0.576l-0.589-0.182c-2.729-0.82-6.653-3.457-8.321-4.965c-0.999-0.957-1.716-2.019-1.258-6.311 c0.518-4.857,3.577-17.105,4.663-19.755c1.053-2.572,2.889-3.717,4.68-4.669c2.036-0.91,4.22-1.633,6.533-2.172 c0.605-0.126,1.112-0.186,1.565-0.186c1.208,0,2,0.447,2.354,1.328l0.78,1.945c3.573-0.824,7.223-0.826,10.864,0.001l0.78-1.946 c0.487-1.214,1.743-1.599,3.917-1.142c2.32,0.54,4.513,1.268,6.531,2.169c1.816,0.967,3.634,2.105,4.684,4.671 c1.086,2.651,4.146,14.9,4.663,19.755l0,0c0.458,4.303-0.232,5.33-1.258,6.31c-1.714,1.55-5.698,4.177-8.327,4.965l-0.587,0.182 C66.991,73.441,66.062,73.735,65.219,73.735z M62.201,67.409l0.334,1.115c0.007,0.023,0.561,1.822,1.654,3.295 c0.278,0.376,0.558,0.516,1.03,0.516c0.626,0,1.451-0.261,2.249-0.514l0.597-0.185c2.411-0.723,6.219-3.237,7.782-4.651 c0.603-0.576,1.239-1.185,0.818-5.136l0,0c-0.508-4.771-3.504-16.779-4.565-19.373c-0.876-2.139-2.331-3.052-4.004-3.944 c-1.893-0.843-4-1.543-6.218-2.06c-0.485-0.102-0.903-0.152-1.261-0.152c-0.875,0-0.992,0.292-1.056,0.45l-1.226,3.055 l-1.126-0.257c-3.463-0.792-6.922-0.79-10.315-0.002l-1.128,0.264l-1.228-3.06c-0.063-0.157-0.181-0.449-1.056-0.449 c-0.356,0-0.77,0.05-1.264,0.152c-2.212,0.515-4.31,1.21-6.221,2.062c-1.648,0.879-3.121,1.798-3.999,3.942 c-1.062,2.592-4.058,14.601-4.565,19.373c-0.422,3.95,0.209,4.553,0.818,5.137c1.555,1.405,5.369,3.927,7.776,4.651l0.597,0.184 c0.843,0.264,1.638,0.513,2.255,0.513c0.473,0,0.752-0.14,1.03-0.515c1.094-1.475,1.647-3.273,1.653-3.291l0.333-1.115 l1.147,0.157c6.109,0.831,12.152,0.832,18.002,0L62.201,67.409z M60.91,62.522c-0.001,0-0.002,0-0.004,0h-0.004 c-2.854-0.002-5.174-2.834-5.173-6.312c0.001-1.657,0.521-3.22,1.466-4.402c0.98-1.228,2.298-1.904,3.709-1.904 c0.001,0,0.002,0,0.004,0c2.859,0.002,5.179,2.834,5.177,6.312c-0.001,1.656-0.521,3.219-1.466,4.401 C63.639,61.846,62.321,62.522,60.91,62.522z M60.91,51.305c-0.983,0-1.911,0.489-2.621,1.377 c-0.747,0.935-1.158,2.188-1.159,3.529c-0.001,2.707,1.691,4.91,3.773,4.911h0.005c0,0,0.001,0,0.002,0 c0.978,0,1.906-0.489,2.615-1.377c0.747-0.936,1.159-2.188,1.159-3.528c0.002-2.707-1.69-4.91-3.772-4.912 C60.912,51.305,60.911,51.305,60.91,51.305z M43.273,62.394c-0.001,0-0.002,0-0.004,0h-0.004 c-2.854-0.002-5.175-2.744-5.173-6.111c0.001-1.606,0.524-3.123,1.474-4.269c0.98-1.183,2.295-1.835,3.701-1.835 c0.001,0,0.002,0,0.004,0c2.858,0.002,5.179,2.744,5.177,6.111c-0.001,1.606-0.524,3.123-1.474,4.269 C45.994,61.742,44.68,62.394,43.273,62.394z M43.272,51.58c-0.987,0-1.919,0.471-2.628,1.328 c-0.742,0.896-1.151,2.095-1.151,3.376c-0.002,2.596,1.69,4.709,3.773,4.71h0.005c0,0,0.001,0,0.002,0 c0.982,0,1.914-0.471,2.623-1.328c0.742-0.896,1.151-2.095,1.151-3.376c0.002-2.596-1.69-4.709-3.773-4.71 C43.274,51.58,43.273,51.58,43.272,51.58z"/><path fill="#6e78ad" d="M39.007,67.569c8.277,1.756,16.428,1.912,26.085-0.031"/><path fill="#472b29" d="M51.764,69.633c-4.319,0-8.569-0.459-12.901-1.379c-0.378-0.08-0.619-0.452-0.539-0.83 c0.08-0.379,0.458-0.622,0.83-0.539c8.633,1.831,16.589,1.821,25.801-0.033c0.369-0.08,0.747,0.168,0.824,0.548 c0.076,0.379-0.169,0.748-0.549,0.824C60.565,69.163,56.129,69.633,51.764,69.633z"/><path fill="#fdfcef" d="M26.5,73.5c0,0,1.567,0,3.5,0s3.5-1.567,3.5-3.5c0-1.781-1.335-3.234-3.055-3.455 C30.473,66.366,30.5,66.187,30.5,66c0-1.933-1.567-3.5-3.5-3.5c-1.032,0-1.95,0.455-2.59,1.165 c-0.384-1.808-1.987-3.165-3.91-3.165c-2.209,0-4,1.791-4,4c0,0.191,0.03,0.374,0.056,0.558C16.128,64.714,15.592,64.5,15,64.5 c-1.228,0-2.245,0.887-2.455,2.055C12.366,66.527,12.187,66.5,12,66.5c-1.933,0-3.5,1.567-3.5,3.5s1.567,3.5,3.5,3.5s7.5,0,7.5,0 V74h7V73.5z"/><path fill="#472b29" d="M28.25,69C28.112,69,28,68.888,28,68.75c0-1.223,0.995-2.218,2.218-2.218 c0.034,0.009,0.737-0.001,1.244,0.136c0.133,0.036,0.212,0.173,0.176,0.306c-0.036,0.134-0.173,0.213-0.306,0.176 c-0.444-0.12-1.1-0.12-1.113-0.118c-0.948,0-1.719,0.771-1.719,1.718C28.5,68.888,28.388,69,28.25,69z M21.5,73 c-0.276,0-0.5,0.224-0.5,0.5s0.224,0.5,0.5,0.5s0.5-0.224,0.5-0.5S21.776,73,21.5,73z"/><path fill="#472b29" d="M30,74h-3.5c-0.276,0-0.5-0.224-0.5-0.5s0.224-0.5,0.5-0.5H30c1.654,0,3-1.346,3-3 c0-1.496-1.125-2.768-2.618-2.959c-0.134-0.018-0.255-0.088-0.336-0.196s-0.115-0.244-0.094-0.377C29.975,66.314,30,66.16,30,66 c0-1.654-1.346-3-3-3c-0.85,0-1.638,0.355-2.219,1c-0.125,0.139-0.321,0.198-0.5,0.148c-0.182-0.049-0.321-0.195-0.36-0.379 C23.58,62.165,22.141,61,20.5,61c-1.93,0-3.5,1.57-3.5,3.5c0,0.143,0.021,0.28,0.041,0.418c0.029,0.203-0.063,0.438-0.242,0.54 s-0.396,0.118-0.556-0.01C15.878,65.155,15.449,65,15,65c-0.966,0-1.792,0.691-1.963,1.644c-0.048,0.267-0.296,0.446-0.569,0.405 C12.314,67.025,12.16,67,12,67c-1.654,0-3,1.346-3,3s1.346,3,3,3h7.5c0.276,0,0.5,0.224,0.5,0.5S19.776,74,19.5,74H12 c-2.206,0-4-1.794-4-4s1.794-4,4-4c0.059,0,0.116,0.002,0.174,0.006C12.588,64.82,13.711,64,15,64c0.349,0,0.689,0.061,1.011,0.18 C16.176,61.847,18.126,60,20.5,60c1.831,0,3.466,1.127,4.153,2.774C25.333,62.276,26.155,62,27,62c2.206,0,4,1.794,4,4 c0,0.048-0.001,0.095-0.004,0.142C32.739,66.59,34,68.169,34,70C34,72.206,32.206,74,30,74z"/><path fill="#472b29" d="M24.5,73c-0.159,0-0.841,0-1,0c-0.276,0-0.5,0.224-0.5,0.5s0.224,0.5,0.5,0.5c0.159,0,0.841,0,1,0 c0.276,0,0.5-0.224,0.5-0.5S24.776,73,24.5,73z"/><path fill="#472b29" d="M43.194,51.282c2.108,0,3.822,2.213,3.822,4.932c0,2.719-1.714,4.932-3.822,4.932 s-3.822-2.213-3.822-4.932C39.372,53.494,41.086,51.282,43.194,51.282 M43.194,49.928c-2.832,0-5.128,2.814-5.128,6.286 c0,3.472,2.295,6.286,5.128,6.286s5.128-2.814,5.128-6.286C48.322,52.742,46.026,49.928,43.194,49.928L43.194,49.928z"/><g><path fill="#472b29" d="M60.907,51.282c2.108,0,3.822,2.213,3.822,4.932c0,2.719-1.714,4.932-3.822,4.932 s-3.822-2.213-3.822-4.932C57.085,53.494,58.8,51.282,60.907,51.282 M60.907,49.928c-2.832,0-5.128,2.814-5.128,6.286 c0,3.472,2.295,6.286,5.128,6.286s5.128-2.814,5.128-6.286C66.035,52.742,63.74,49.928,60.907,49.928L60.907,49.928z"/></g><g><path fill="#472b29" d="M59.142,42.602c-0.044,0-0.09-0.006-0.135-0.019c-2.001-0.559-5.109-0.867-7.906-0.785 c-0.274-0.006-0.507-0.209-0.515-0.485c-0.008-0.276,0.21-0.506,0.485-0.515c2.9-0.083,6.116,0.239,8.205,0.822 c0.266,0.074,0.421,0.35,0.347,0.616C59.562,42.458,59.36,42.602,59.142,42.602z"/></g><g><path fill="#472b29" d="M44.769,42.647c-0.222,0-0.425-0.148-0.483-0.373c-0.07-0.267,0.089-0.541,0.356-0.611 c1.126-0.297,2.251-0.531,3.343-0.695c0.271-0.034,0.527,0.147,0.568,0.42c0.041,0.273-0.146,0.527-0.42,0.569 c-1.057,0.159-2.146,0.385-3.237,0.673C44.854,42.642,44.811,42.647,44.769,42.647z"/></g></svg>