<svg xmlns="http://www.w3.org/2000/svg" x="0px" y="0px" width="70" height="70" viewBox="0 0 100 100">
<path fill="#ee3e54" d="M12.725,26.858c-1.105,0-2,0.895-2,2s0.895,2,2,2s2-0.895,2-2S13.83,26.858,12.725,26.858z"></path><path fill="#f1bc19" d="M76.725,11.858c-0.551,0-1,0.449-1,1s0.449,1,1,1s1-0.449,1-1S77.276,11.858,76.725,11.858z"></path><path fill="#fce0a2" d="M49.725,12.858c-20.434,0-37,16.566-37,37s16.566,37,37,37s37-16.566,37-37 S70.159,12.858,49.725,12.858z"></path><path fill="#f1bc19" d="M82.725,10.858c-2.211,0-4,1.789-4,4s1.789,4,4,4s4-1.789,4-4S84.936,10.858,82.725,10.858z"></path><path fill="#ee3e54" d="M86.725,21.858c-1.105,0-2,0.895-2,2s0.895,2,2,2s2-0.895,2-2S87.83,21.858,86.725,21.858z"></path><path fill="#fbcd59" d="M80.725,73.858c-1.105,0-2,0.895-2,2s0.895,2,2,2s2-0.895,2-2S81.83,73.858,80.725,73.858z M14.725,58.858c-2.211,0-4,1.789-4,4s1.789,4,4,4s4-1.789,4-4S16.936,58.858,14.725,58.858z"></path><path fill="#ee3e54" d="M24.725,84.858c-1.105,0-2,0.895-2,2s0.895,2,2,2s2-0.895,2-2S25.83,84.858,24.725,84.858z"></path><path fill="#fff" d="M18.225,40.858c-1.379,0-2.5,1.121-2.5,2.5s1.121,2.5,2.5,2.5s2.5-1.121,2.5-2.5 S19.604,40.858,18.225,40.858z"></path><path fill="#f1bc19" d="M20.725,64.858c-0.551,0-1,0.449-1,1s0.449,1,1,1s1-0.449,1-1S21.276,64.858,20.725,64.858z"></path><path fill="#fff" d="M79.725,31.858c-0.551,0-1,0.449-1,1s0.449,1,1,1s1-0.449,1-1S80.276,31.858,79.725,31.858z"></path><g><path fill="#beace5" d="M71.499,32.807L52.744,47.752c-1.633,1.301-3.966,1.296-5.593-0.012l-18.669-15.01 c-0.729-0.556-1.788-0.043-1.788,0.866v6.53V63.12c0,2.419,1.988,4.38,4.439,4.38h37.734c2.452,0,4.439-1.961,4.439-4.38V33.659 C73.306,32.739,72.225,32.229,71.499,32.807z"></path><path fill="#6869ad" d="M31.133,67.25c-2.311,0-4.189-1.853-4.189-4.13V40.647l14.561,11.671 c0.833,0.668,1.883,1.035,2.955,1.035c1.068,0,2.114-0.364,2.944-1.026l15.665-12.482V67.25H31.133z"></path><path fill="#472b29" d="M62.818,67.25c-0.138,0-0.25-0.112-0.25-0.25v-3.596c0-0.138,0.112-0.25,0.25-0.25 s0.25,0.112,0.25,0.25V67C63.068,67.138,62.956,67.25,62.818,67.25z"></path><path fill="#472b29" d="M62.818,61.896c-0.138,0-0.25-0.112-0.25-0.25v-2.068c0-0.138,0.112-0.25,0.25-0.25 s0.25,0.112,0.25,0.25v2.068C63.068,61.784,62.956,61.896,62.818,61.896z"></path><path fill="#472b29" d="M62.818,56.055c-0.138,0-0.25-0.112-0.25-0.25v-15.94c0-0.138,0.112-0.25,0.25-0.25 s0.25,0.112,0.25,0.25v15.94C63.068,55.942,62.956,56.055,62.818,56.055z"></path><path fill="#472b29" d="M44.459,53.854c-1.187,0-2.347-0.406-3.268-1.145l-9.88-7.919 c-0.107-0.087-0.125-0.244-0.039-0.352c0.088-0.107,0.245-0.125,0.352-0.039l9.88,7.919c0.832,0.668,1.882,1.035,2.955,1.035 c1.067,0,2.113-0.364,2.945-1.025l6.669-5.413c0.106-0.085,0.264-0.071,0.352,0.037c0.087,0.106,0.07,0.265-0.037,0.352 l-6.671,5.414C46.796,53.45,45.64,53.854,44.459,53.854z"></path><path fill="#472b29" d="M30.019,43.684c-0.055,0-0.11-0.018-0.156-0.055l-2.825-2.265 c-0.107-0.087-0.125-0.244-0.039-0.352c0.088-0.106,0.244-0.125,0.352-0.039l2.825,2.265c0.107,0.087,0.125,0.244,0.039,0.352 C30.164,43.651,30.092,43.684,30.019,43.684z"></path><path fill="#472b29" d="M68.867,68.2H31.133c-2.834,0-5.14-2.279-5.14-5.08V33.597c0-0.685,0.384-1.299,1.001-1.605 c0.625-0.31,1.358-0.239,1.912,0.183l18.683,15.021c1.364,1.097,3.349,1.102,4.719,0.011L71.063,32.26 c0.553-0.438,1.289-0.521,1.925-0.216c0.629,0.303,1.02,0.922,1.02,1.615V63.12C74.007,65.921,71.701,68.2,68.867,68.2z M27.815,33.198c-0.087,0-0.161,0.028-0.2,0.048c-0.066,0.033-0.222,0.134-0.222,0.351V63.12c0,2.029,1.678,3.68,3.739,3.68 h37.734c2.062,0,3.739-1.65,3.739-3.68V33.659c0-0.221-0.158-0.32-0.227-0.354c-0.07-0.032-0.258-0.099-0.444,0.049v0.001 L53.181,48.3c-1.878,1.495-4.599,1.488-6.469-0.014l-18.668-15.01C27.967,33.217,27.887,33.198,27.815,33.198z"></path></g>
</svg>
